<?xml version="1.0" encoding="utf-8"?>
<svg version="1.1" xmlns:xlink="http://www.w3.org/1999/xlink" width="10px" height="5px" xmlns="http://www.w3.org/2000/svg">
  <g transform="matrix(1 0 0 1 -114 -197 )">
    <path d="M 9.99734760802469 0.38562863372093  C 9.99855324074074 0.197129360465115  9.83579282407407 0.0449672965116279  9.63686342592593 0.0449672965116279  C 9.43672839506173 0.0449672965116279  9.27517361111111 0.197129360465115  9.27517361111111 0.38562863372093  L 9.27517361111111 4.31458938953488  L 0.724826388888889 4.31458938953488  L 0.724826388888889 0.38562863372093  C 0.724826388888889 0.197129360465115  0.563271604938272 0.0449672965116279  0.363136574074074 0.0449672965116279  C 0.163001543209877 0.0449672965116279  0.00144675925925926 0.197129360465115  0.00144675925925926 0.38562863372093  L 0.00144675925925926 4.65525072674419  C 0.00144675925925926 4.84375  0.163001543209877 4.99591206395349  0.363136574074074 4.99591206395349  L 9.63565779320988 4.99591206395349  C 9.83579282407407 4.99591206395349  9.99734760802469 4.84375  9.99734760802469 4.65525072674419  L 9.99734760802469 0.38562863372093  Z " fill-rule="nonzero" fill="#abacb6" stroke="none" transform="matrix(1 0 0 1 114 197 )" />
  </g>
</svg>