<?xml version="1.0" encoding="utf-8"?>
<svg version="1.1" xmlns:xlink="http://www.w3.org/1999/xlink" width="4px" height="8px" xmlns="http://www.w3.org/2000/svg">
  <g transform="matrix(1 0 0 1 -117 -193 )">
    <path d="M 0.0974264705882353 2.70659722222222  C -0.00942095588235294 2.8764880952381  0.0307904411764706 3.10714285714286  0.188189338235294 3.22371031746032  C 0.345588235294118 3.3390376984127  0.560431985294118 3.29563492063492  0.667279411764706 3.12574404761905  L 1.64154411764706 1.58308531746032  L 1.64154411764706 7.56894841269841  C 1.64154411764706 7.77480158730159  1.79549632352941 7.94097222222222  1.98621323529412 7.94097222222222  L 2.00459558823529 7.94097222222222  C 2.1953125 7.94097222222222  2.34926470588235 7.77480158730159  2.34926470588235 7.56894841269841  L 2.34926470588235 1.58308531746032  L 3.32352941176471 3.12574404761905  C 3.43037683823529 3.29563492063492  3.64522058823529 3.3390376984127  3.80261948529412 3.22371031746032  C 3.96001838235294 3.10838293650794  4.00022977941176 2.87648809523809  3.89338235294118 2.70659722222222  L 2.28837316176471 0.166914682539682  C 2.22173713235294 0.0602678571428571  2.11029411764706 0.00198412698412676  1.99425551470588 0.00446428571428571  C 1.87936580882353 0.000744047619047393  1.76792279411765 0.0602678571428571  1.70013786764706 0.166914682539682  L 0.0974264705882353 2.70659722222222  Z " fill-rule="nonzero" fill="#abacb6" stroke="none" transform="matrix(1 0 0 1 117 193 )" />
  </g>
</svg>