<?xml version="1.0" encoding="utf-8"?>
<svg version="1.1" xmlns:xlink="http://www.w3.org/1999/xlink" width="7px" height="4px" xmlns="http://www.w3.org/2000/svg">
  <g transform="matrix(1 0 0 1 -235 -196 )">
    <path d="M 0.28875 0.247083330078125  C 0.441597553757844 0.0942191215295454  0.685964781077713 0.0836337954422373  0.851458330078125 0.222708330078125  L 0.877916669921875 0.247083330078125  L 3.5 2.86875  L 6.12208333007812 0.246875  C 6.27493088511477 0.0940107855452248  6.51929811934544 0.0834254593422634  6.68479166992188 0.2225  L 6.71125 0.246875  C 6.86411420854858 0.399722553757844  6.87469953463589 0.644089781077713  6.735625 0.809583330078125  L 6.71125 0.836041669921875  L 3.79458333007812 3.75270833007813  C 3.64173577632028 3.9055725386267  3.39736854900041 3.91615786471401  3.231875 3.77708333007813  L 3.20541666992187 3.75270833007813  L 0.288749999999999 0.836041669921875  C 0.126090858655364 0.673333397352601  0.126090858655365 0.409583272569275  0.288749999999999 0.246875  Z " fill-rule="nonzero" fill="#8693a5" stroke="none" transform="matrix(1 0 0 1 235 196 )" />
  </g>
</svg>