<?xml version="1.0" encoding="utf-8"?>
<svg version="1.1" xmlns:xlink="http://www.w3.org/1999/xlink" width="19px" height="22px" xmlns="http://www.w3.org/2000/svg">
  <g transform="matrix(1 0 0 1 -1532 -159 )">
    <path d="M 9.5 22  L 3.00653264816406 15.5559004648438  C 1.28541461170551 13.8519363205122  0.317310195437456 11.5324280190145  0.317310195437456 9.11271758203125  C 0.317310195437456 6.69300714504804  1.28541461170551 4.37349884355028  3.00653264816406 2.66953469921875  C 6.59258696449219 -0.889844892578124  12.4074130570312 -0.889844892578124  15.9934673518359 2.66953469921875  C 17.7148683198201 4.37353450140744  18.6831527779321 6.69323983786591  18.6831527779321 9.11317590820313  C 18.6831527779321 11.5331119785403  17.7148683198201 13.8528173149988  15.9934673518359 15.5568171171875  L 9.5 22  Z M 9.5 11.9167717109375  C 11.0215286403245 11.9167717109375  12.2549713092578 10.6855675949423  12.2549713092578 9.16680034960937  C 12.2549713092578 7.64803310427643  11.0215286403245 6.41682898828125  9.5 6.41682898828125  C 7.97847135967554 6.41682898828125  6.74502869074219 7.64803310427643  6.74502869074219 9.16680034960937  C 6.74502869074219 10.6855675949423  7.97847135967554 11.9167717109375  9.5 11.9167717109375  Z " fill-rule="nonzero" fill="#0e71ff" stroke="none" transform="matrix(1 0 0 1 1532 159 )" />
  </g>
</svg>