<?xml version="1.0" encoding="utf-8"?>
<svg version="1.1" xmlns:xlink="http://www.w3.org/1999/xlink" width="8px" height="5px" xmlns="http://www.w3.org/2000/svg">
  <g transform="matrix(1 0 0 1 -1705 -459 )">
    <path d="M 7.54166666666667 1.29464285714286  C 7.83333333333333 0.982142857142857  7.79166666666667 0.580357142857143  7.58333333333333 0.3125  C 7.45833333333333 0.178571428571429  7.29166666666667 0.133928571428571  7.125 0.133928571428571  L 0.875 0.178571428571429  C 0.708333333333333 0.178571428571429  0.541666666666667 0.223214285714286  0.416666666666667 0.357142857142857  C 0.166666666666667 0.625  0.166666666666667 1.02678571428571  0.416666666666667 1.29464285714286  L 3.54166666666667 4.64285714285714  C 3.58333333333333 4.6875  3.66666666666667 4.73214285714286  3.70833333333333 4.77678571428572  C 3.70833333333333 4.77678571428572  3.75 4.82142857142857  3.75 4.82142857142857  C 3.95833333333333 4.91071428571429  4.25 4.86607142857143  4.41666666666667 4.6875  L 7.54166666666667 1.29464285714286  Z " fill-rule="nonzero" fill="#000000" stroke="none" transform="matrix(1 0 0 1 1705 459 )" />
  </g>
</svg>