<?xml version="1.0" encoding="utf-8"?>
<svg version="1.1" xmlns:xlink="http://www.w3.org/1999/xlink" width="16px" height="10px" xmlns="http://www.w3.org/2000/svg">
  <g transform="matrix(1 0 0 1 -2606 -505 )">
    <path d="M 8.56270048046875 8.91809153125  C 8.41938165039063 9.06434638085938  8.223214671875 9.14676249609375  8.01844748242188 9.14676249609375  C 7.81370629296875 9.14676249609375  7.61751331445312 9.06434638085937  7.474194484375 8.91809153125  L 0.869680349609375 2.17927444726562  C 0.57506609765625 1.87871023242188  0.579950796875 1.39621736523438  0.880540986328125 1.10162908789063  C 1.18110520117188 0.807066810546875  1.66362406835938 0.81189953515625  1.95818634570313 1.11248972460938  L 8.01844748242188 7.29598532617188  L 14.0787086445313 1.11248972460938  C 14.373270921875 0.81187353515625  14.8557378144531 0.806962861328126  15.1563540039062 1.10162908789063  C 15.4569701933594 1.39624333984375  15.4618288925781 1.87871023242188  15.167214640625 2.17927444726562  L 8.56270048046875 8.91809153125  Z " fill-rule="nonzero" fill="#dcdfe6" stroke="none" transform="matrix(1 0 0 1 2606 505 )" />
  </g>
</svg>