<?xml version="1.0" encoding="utf-8"?>
<svg version="1.1" xmlns:xlink="http://www.w3.org/1999/xlink" width="16px" height="18px" xmlns="http://www.w3.org/2000/svg">
  <g transform="matrix(1 0 0 1 -2607 -549 )">
    <path d="M 14.6534090909091 15.162890625  C 14.6568181818182 16.0927734375  13.9255681818182 16.85390625  13.0221590909091 16.857421875  L 2.10454545454545 16.8662109375  C 1.20113636363636 16.8697265625  0.463068181818181 16.115625  0.45965909090909 15.183984375  L 0.452840909090908 13.4771484375  L 1.54545454545454 13.471875  L 1.55227272727273 15.1787109375  C 1.55397727272727 15.48984375  1.79943181818182 15.7412109375  2.10113636363636 15.739453125  L 13.01875 15.7306640625  C 13.3204545454545 15.72890625  13.5642045454545 15.47578125  13.5625 15.16640625  L 13.5147727272727 2.81953125  C 13.5130681818182 2.5083984375  13.2676136363636 2.25703125  12.9659090909091 2.2587890625  L 2.04829545454545 2.267578125  C 1.74659090909091 2.2693359375  1.50284090909091 2.5224609375  1.50454545454545 2.8318359375  L 1.51136363636363 4.5052734375  L 0.418749999999998 4.510546875  L 0.411931818181816 2.837109375  C 0.408522727272725 1.90546875  1.13977272727273 1.14609375  2.04318181818182 1.142578125  L 12.9607954545455 1.1337890625  C 13.8642045454545 1.1302734375  14.6022727272727 1.884375  14.6056818181818 2.816015625  L 14.6534090909091 15.162890625  Z " fill-rule="nonzero" fill="#dcdfe6" stroke="none" transform="matrix(1 0 0 1 2607 549 )" />
  </g>
</svg>