<?xml version="1.0" encoding="utf-8"?>
<svg version="1.1" xmlns:xlink="http://www.w3.org/1999/xlink" width="15px" height="12px" xmlns="http://www.w3.org/2000/svg">
  <g transform="matrix(1 0 0 1 -2606 -552 )">
    <path d="M 1.97588671875 8.27865234375  L 1.9581328125 3.77689453125  L 3.084890625 3.77246484375  L 3.10264453125 8.27422265625  L 1.97588671875 8.27865234375  Z M 1.392662109375 3.216591796875  L 1.388232421875 2.091591796875  L 3.639990234375 2.08271484375  L 3.644419921875 3.20771484375  L 1.392662109375 3.216591796875  Z M 1.419029296875 9.97016015625  L 1.414599609375 8.84516015625  L 3.666357421875 8.836283203125  L 3.670787109375 9.961283203125  L 1.419029296875 9.97016015625  Z M 6.725390625 1.130859375  C 6.725390625 0.821484375  6.472265625 0.5701171875  6.162890625 0.5701171875  L 6.1611328125 0.5701171875  C 5.85 0.571874999999999  5.5986328125 0.825  5.600390625 1.134375  C 5.6021484375 1.44375  5.853515625 1.6951171875  6.162890625 1.6951171875  L 6.1646484375 1.6951171875  C 6.47578125 1.693359375  6.7271484375 1.440234375  6.725390625 1.130859375  Z M 6.16640625 1.85859375  C 6.788671875 1.855078125  7.294921875 2.47734375  7.2966796875 3.0978515625  C 7.2984375 3.7201171875  5.0466796875 3.72890625  5.044921875 3.106640625  C 5.0431640625 2.484375  5.544140625 1.862109375  6.16640625 1.85859375  Z M 6.725390625 5.068359375  C 6.725390625 4.758984375  6.472265625 4.5076171875  6.162890625 4.5076171875  L 6.1611328125 4.5076171875  C 5.85 4.509375  5.5986328125 4.7625  5.600390625 5.071875  C 5.6021484375 5.38125  5.853515625 5.6326171875  6.162890625 5.6326171875  L 6.1646484375 5.6326171875  C 6.47578125 5.630859375  6.7271484375 5.377734375  6.725390625 5.068359375  Z M 6.16640625 5.79609375  C 6.788671875 5.792578125  7.294921875 6.41484375  7.2966796875 7.0353515625  C 7.2984375 7.6576171875  5.0466796875 7.66640625  5.044921875 7.044140625  C 5.0431640625 6.421875  5.544140625 5.799609375  6.16640625 5.79609375  Z M 6.725390625 9.005859375  C 6.725390625 8.696484375  6.472265625 8.4451171875  6.162890625 8.4451171875  L 6.1611328125 8.4451171875  C 5.85 8.446875  5.5986328125 8.7  5.600390625 9.009375  C 5.6021484375 9.31875  5.853515625 9.5701171875  6.162890625 9.5701171875  L 6.1646484375 9.5701171875  C 6.47578125 9.568359375  6.7271484375 9.315234375  6.725390625 9.005859375  Z M 6.16640625 9.73359375  C 6.788671875 9.730078125  7.294921875 10.35234375  7.2966796875 10.9728515625  C 7.2984375 11.5951171875  5.0466796875 11.60390625  5.044921875 10.981640625  C 5.0431640625 10.359375  5.544140625 9.737109375  6.16640625 9.73359375  Z M 9 2.642578125  L 9 1.517578125  L 14.625 1.517578125  L 14.625 2.642578125  L 9 2.642578125  Z M 9 6.5625  L 9 5.4375  L 14.625 5.4375  L 14.625 6.5625  L 9 6.5625  Z M 9 10.5  L 9 9.375  L 14.625 9.375  L 14.625 10.5  L 9 10.5  Z " fill-rule="nonzero" fill="#dcdfe6" stroke="none" transform="matrix(1 0 0 1 2606 552 )" />
  </g>
</svg>