<?xml version="1.0" encoding="utf-8"?>
<svg version="1.1" xmlns:xlink="http://www.w3.org/1999/xlink" width="12px" height="12px" xmlns="http://www.w3.org/2000/svg">
  <g transform="matrix(1 0 0 1 -2078 -746 )">
    <path d="M 10.4848484804688 1.14141413411458  L 8.61616161762153 1.14141413411458  L 8.61616161762153 0.767676764756945  C 8.61616161762153 0.561267310784264  8.44883369420706 0.393939387369792  8.24242424023437 0.393939387369792  C 8.0360147862617 0.393939387369792  7.86868686284722 0.561267310784264  7.86868686284722 0.767676764756945  L 7.86868686284722 1.14141413411458  L 4.13131313715278 1.14141413411458  L 4.13131313715278 0.767676764756945  C 4.13131313715278 0.561267310784264  3.96398521373831 0.393939387369792  3.75757575976563 0.393939387369792  C 3.55116630579295 0.393939387369792  3.38383838237847 0.561267310784264  3.38383838237847 0.767676764756945  L 3.38383838237847 1.14141413411458  L 1.51515151953125 1.14141413411458  C 0.689513712509684 1.14141413411458  0.0202020260416664 1.8107258205826  0.0202020260416664 2.63636362760417  L 0.0202020260416668 10.4848484804687  C 0.0202020260416668 11.3104862874903  0.689513712509685 11.9797979739583  1.51515151953125 11.9797979739583  L 10.4848484804687 11.9797979739583  C 11.3104862874903 11.9797979739583  11.9797979739583 11.3104862874903  11.9797979739583 10.4848484804688  L 11.9797979739583 2.63636364366319  C 11.9797979739583 1.8107258205826  11.3104862874903 1.14141413411458  10.4848484804687 1.14141413411458  Z M 0.767676764756944 3.75757575173611  L 0.767676764756944 2.63636364366319  C 0.767676764756944 2.22354473571783  1.10233261158589 1.88888888888889  1.51515151953125 1.88888888888889  L 3.38383838237847 1.88888888888889  L 3.38383838237847 2.26262625824653  C 3.38383838237847 2.46903571221921  3.55116630579295 2.63636363563368  3.75757575976563 2.63636363563368  C 3.96398521373831 2.63636363563368  4.13131313715278 2.46903571221921  4.13131313715278 2.26262625824653  L 4.13131313715278 1.88888888888889  L 7.86868686284722 1.88888888888889  L 7.86868686284722 2.26262625824653  C 7.86868686284722 2.46903571221921  8.0360147862617 2.63636363563368  8.24242424023437 2.63636363563368  C 8.44883369420706 2.63636363563368  8.61616161762153 2.46903571221921  8.61616161762153 2.26262625824653  L 8.61616161762153 1.88888888888889  L 10.4848484804687 1.88888888888889  C 10.8976673884141 1.88888888888889  11.2323232352431 2.22354473571783  11.2323232352431 2.63636364366319  L 11.2323232352431 3.75757575173611  L 0.767676764756944 3.75757575173611  Z M 11.2323232352431 4.50505050651042  L 11.2323232352431 10.4848484804687  C 11.2323232352431 10.8976673884141  10.8976673884141 11.2323232352431  10.4848484804688 11.2323232352431  L 1.51515151953125 11.2323232352431  C 1.10233261158589 11.2323232352431  0.767676764756944 10.8976673884141  0.767676764756944 10.4848484804688  L 0.767676764756944 4.50505050651042  L 11.2323232352431 4.50505050651042  Z " fill-rule="nonzero" fill="#dcdfe6" stroke="none" transform="matrix(1 0 0 1 2078 746 )" />
  </g>
</svg>