<?xml version="1.0" encoding="utf-8"?>
<svg version="1.1" xmlns:xlink="http://www.w3.org/1999/xlink" width="7px" height="4px" xmlns="http://www.w3.org/2000/svg">
  <g transform="matrix(1 0 0 1 -2080 -752 )">
    <path d="M 0.383689846335018 1.09090909912109  L 2.46122994381893 1.09090909912109  C 2.65246223205833 1.09090909912109  2.80748663169233 0.902665185279812  2.80748663169233 0.670454549560546  C 2.80748663169233 0.438243913841282  2.65246223205833 0.249999999999998  2.46122994381893 0.249999999999998  L 0.38368984633502 0.249999999999998  C 0.192457558095625 0.249999999999998  0.0374331584616282 0.438243913841282  0.0374331584616282 0.670454549560546  C 0.0374331584616282 0.902665185279812  0.192457558095625 1.09090909912109  0.38368984633502 1.09090909912109  Z M 0.383689846335018 3.61363636035156  L 2.46122994381893 3.61363636035156  C 2.65246220731132 3.61363636035156  2.80748660361471 3.42539245055458  2.80748660361471 3.19318181982422  C 2.80748660361471 2.96097118909385  2.65246220731132 2.77272727929688  2.46122992318043 2.77272727929688  L 0.38368984633502 2.77272727929688  C 0.192457582842637 2.77272727929688  0.037433186539243 2.96097118909385  0.037433186539243 3.19318181982422  C 0.037433186539243 3.42539245055458  0.192457582842637 3.61363636035156  0.383689866973526 3.61363636035156  Z M 4.53877005618107 1.09090909912109  L 6.61631015366498 1.09090909912109  C 6.80754244190438 1.09090909912109  6.96256684153837 0.902665185279812  6.96256684153837 0.670454549560546  C 6.96256684153837 0.438243913841282  6.80754244190438 0.249999999999998  6.61631015366498 0.249999999999998  L 4.53877005618107 0.249999999999998  C 4.34753776794167 0.249999999999998  4.19251336830768 0.438243913841282  4.19251336830768 0.670454549560546  C 4.19251336830768 0.902665185279812  4.34753776794167 1.09090909912109  4.53877005618107 1.09090909912109  Z M 4.53877005618107 3.61363636035156  L 6.61631015366498 3.61363636035156  C 6.80754241715736 3.61363636035156  6.96256681346076 3.42539245055458  6.96256681346076 3.19318181982422  C 6.96256681346076 2.96097118909385  6.80754241715737 2.77272727929688  6.61631013302648 2.77272727929688  L 4.53877005618107 2.77272727929688  C 4.34753779268868 2.77272727929688  4.19251339638529 2.96097118909385  4.19251339638529 3.19318181982422  C 4.19251339638529 3.42539245055458  4.34753779268868 3.61363636035156  4.53877007681957 3.61363636035156  Z " fill-rule="nonzero" fill="#dcdfe6" stroke="none" transform="matrix(1 0 0 1 2080 752 )" />
  </g>
</svg>