<?xml version="1.0" encoding="utf-8"?>
<svg version="1.1" xmlns:xlink="http://www.w3.org/1999/xlink" width="522px" height="55px" xmlns="http://www.w3.org/2000/svg">
  <g transform="matrix(1 0 0 1 -2742 -189 )">
    <path d="M 0.5 54  L 0.5 1.21543408360127  C 0 0.534790996784563  1.53999999999999 0  3.5 0.5  L 517.5 0.5  C 519.46 0  521 0.534790996784563  521.5 1.21543408360127  L 521.5 54  L 0.5 54  Z " fill-rule="nonzero" fill="#ffffff" stroke="none" transform="matrix(1 0 0 1 2742 189 )" />
    <path d="M 0.5 54  L 0.5 1.21543408360127  C 0 0.534790996784563  1.53999999999999 0  3.5 0.5  L 517.5 0.5  C 519.46 0  521 0.534790996784563  521.5 1.21543408360127  L 521.5 54  " stroke-width="1" stroke="#d8d8d8" fill="none" transform="matrix(1 0 0 1 2742 189 )" />
  </g>
</svg>