<?xml version="1.0" encoding="utf-8"?>
<svg version="1.1" xmlns:xlink="http://www.w3.org/1999/xlink" width="10px" height="11px" xmlns="http://www.w3.org/2000/svg">
  <g transform="matrix(1 0 0 1 -114 -294 )">
    <path d="M 9.38311688197545 2.1250000032959  C 9.38311688197545 1.64687500769043  9.0032467578125 1.28125000109863  8.5064935030692 1.28125000109863  L 7.57142857142857 1.28125000109863  L 6.60714285714286 0.353125001098633  C 6.54870130440848 0.296875006591797  6.46103895647322 0.268750003295898  6.37337662109375 0.268750003295898  L 1.4935064969308 0.268750003295898  C 0.996753254743304 0.268750003295898  0.616883118024553 0.662500001098633  0.616883118024553 1.11250000549316  L 0.616883118024553 8.8749999967041  C 0.616883118024553 9.35312499230957  1.02597402483259 9.71874999890137  1.4935064969308 9.71874999890137  L 1.66883116768973 9.71874999890137  L 1.66883116768973 9.88749999450684  C 1.66883116768973 10.3656249901123  2.07792207449777 10.7312499967041  2.54545454659598 10.7312499967041  L 8.5064935030692 10.7312499967041  C 9.0032467452567 10.7312499967041  9.38311688197545 10.3374999989014  9.38311688197545 9.88749999450684  L 9.38311688197545 2.1250000032959  Z M 6.69480519252232 1.61875000439453  L 6.69480519252232 1.39375000219727  L 7.10389609933036 1.7875  L 6.87012987583705 1.7875  C 6.7532467578125 1.7875  6.69480520507812 1.70312500219727  6.69480519252232 1.61875000439453  Z M 1.4935064969308 9.04375000439453  C 1.40584416155134 9.04375000439453  1.31818182617187 8.9593750065918  1.31818181361607 8.8749999967041  L 1.31818181361607 1.08437500219727  C 1.31818181361607 1.00000000439453  1.40584414899554 0.915625006591797  1.4935064969308 0.915624994506836  L 5.9935064969308 0.915624994506836  L 5.9935064969308 1.61875000439453  C 5.9935064969308 2.096875  6.40259740373884 2.4625000065918  6.87012987583705 2.46249999450684  L 7.60064935407366 2.46249999450684  L 7.60064935407366 8.8749999967041  C 7.60064935407366 8.95937499450684  7.5129870186942 9.04374999230957  7.42532467075893 9.04375000439453  L 1.4935064969308 9.04375000439453  Z M 8.68181818638393 2.1250000032959  L 8.68181818638393 9.91562499780273  C 8.68181818638393 9.99999999560547  8.59415585100446 10.0843749934082  8.5064935030692 10.0843750054932  L 2.57467532924107 10.0843750054932  C 2.48701299386161 10.0843750054932  2.39935065848214 10.0000000076904  2.39935064592634 9.91562499780273  L 2.39935064592634 9.71874999890137  L 7.42532467075893 9.71874999890137  C 7.92207791294643 9.71874999890137  8.30194804966518 9.32500000109863  8.30194804966518 8.8749999967041  L 8.30194804966518 2.1250000032959  C 8.30194804966518 2.06875000878906  8.27272726702009 2.01250000219727  8.2435064969308 1.95624999560547  L 8.5064935030692 1.95624999560547  C 8.62337662109375 1.95624999560547  8.68181817382813 2.0406249934082  8.68181818638393 2.1250000032959  Z " fill-rule="nonzero" fill="#abacb6" stroke="none" transform="matrix(1 0 0 1 114 294 )" />
  </g>
</svg>