<?xml version="1.0" encoding="utf-8"?>
<svg version="1.1" xmlns:xlink="http://www.w3.org/1999/xlink" width="6px" height="6px" xmlns="http://www.w3.org/2000/svg">
  <g transform="matrix(1 0 0 1 -115 -297 )">
    <path d="M 5.775 2.69318182177734  C 5.775 1.25113636962891  4.60909090429687 0.0852272739257811  3.16704545214844 0.0852272739257811  C 1.725 0.0852272739257811  0.559090904296874 1.25113636962891  0.559090904296874 2.69318182177734  C 0.559090904296874 4.13522727392578  1.725 5.3011363696289  3.16704545214844 5.3011363696289  C 4.60909090429687 5.3011363696289  5.775 4.13522727392578  5.775 2.69318182177734  Z M 5.03863636962891 2.69318182177734  C 5.0386363828125 3.73636364355469  4.21022727392578 4.56477272607422  3.16704545214844 4.56477272607422  C 2.12386363037109 4.56477272607422  1.29545454785156 3.73636363037109  1.29545454785156 2.69318182177734  C 1.29545454785156 1.65000001318359  2.12386364355469 0.821590917480468  3.16704545214844 0.821590904296873  C 4.21022727392578 0.821590904296873  5.03863635644531 1.65  5.03863636962891 2.69318182177734  Z " fill-rule="nonzero" fill="#abacb6" stroke="none" transform="matrix(1 0 0 1 115 297 )" />
  </g>
</svg>