<?xml version="1.0" encoding="utf-8"?>
<svg version="1.1" xmlns:xlink="http://www.w3.org/1999/xlink" width="3px" height="4px" xmlns="http://www.w3.org/2000/svg">
  <g transform="matrix(1 0 0 1 -117 -298 )">
    <path d="M 2.95568182177734 2.0727272765625  C 2.95568182177734 1.8436363828125  2.80227272607422 1.68  2.5875 1.68  L 2.03522727392578 1.68  L 2.03522727392578 1.0909090921875  C 2.03522727392578 0.861818184375  1.88181817822266 0.698181815625  1.66704545214844 0.698181815625  C 1.45227272607422 0.698181815625  1.29886363037109 0.861818184375  1.29886363037109 1.0909090921875  L 1.29886363037109 1.68  L 0.746590904296874 1.68  C 0.531818178222656 1.68  0.378409082519531 1.84363636875  0.378409095703124 2.0727272765625  C 0.378409108886718 2.301818184375  0.531818191406249 2.465454553125  0.746590904296874 2.4654545390625  L 1.29886363037109 2.4654545390625  L 1.29886363037109 3.0545454609375  C 1.29886363037109 3.28363636875  1.45227272607422 3.4472727375  1.66704545214844 3.4472727234375  C 1.88181817822266 3.447272709375  2.03522727392578 3.2836363546875  2.03522727392578 3.0545454609375  L 2.03522727392578 2.4654545390625  L 2.5875 2.4654545390625  C 2.80227272607422 2.4654545390625  2.95568182177734 2.3018181703125  2.95568182177734 2.0727272765625  Z " fill-rule="nonzero" fill="#abacb6" stroke="none" transform="matrix(1 0 0 1 117 298 )" />
  </g>
</svg>