<?xml version="1.0" encoding="utf-8"?>
<svg version="1.1" xmlns:xlink="http://www.w3.org/1999/xlink" width="4px" height="6px" xmlns="http://www.w3.org/2000/svg">
  <g transform="matrix(1 0 0 1 -237 -297 )">
    <path d="M 2.8821875 3.01870191932091  L 0.486041662597654 5.23740384239784  C 0.31595652407344 5.3948858510981  0.310355251224449 5.64806637467073  0.473333337402343 5.81182692683293  C 0.551481169296618 5.89034479118961  0.661703017584556 5.93503393841147  0.777212587341944 5.93503393841147  C 0.886735263705493 5.93503393841147  0.991765466901299 5.89484398588381  1.06916666259766 5.82331730769231  L 3.73291666259766 3.36149038837139  C 3.93614582519531 3.17365384615384  3.93604166259766 2.86932692307692  3.73260416259765 2.68168269230769  L 1.05989583740234 0.215865380859375  C 0.983228093176079 0.145138930219261  0.879272776209944 0.105408901809142  0.770881740253954 0.105408901809142  C 0.65637735033931 0.105408901809142  0.547120256883689 0.149731874265844  0.4696875 0.227596153846153  C 0.308330093334769 0.389853528546817  0.31393062184643 0.640605988999393  0.482395837402343 0.796586538461538  L 2.8821875 3.01865384990985  Z " fill-rule="nonzero" fill="#8693a5" stroke="none" transform="matrix(1 0 0 1 237 297 )" />
  </g>
</svg>