<?xml version="1.0" encoding="utf-8"?>
<svg version="1.1" xmlns:xlink="http://www.w3.org/1999/xlink" width="22px" height="20px" xmlns="http://www.w3.org/2000/svg">
  <g transform="matrix(1 0 0 1 -2307 -1311 )">
    <path d="M 18.139 0.606000000000003  C 18.7623333333333 0.826000000000003  19.338 1.2  19.866 1.728  C 20.394 2.256  20.7863333333333 2.84633333333333  21.043 3.499  C 21.2996666666667 4.15166666666667  21.428 4.82266666666667  21.428 5.512  C 21.428 6.20133333333334  21.2996666666667 6.87233333333334  21.043 7.525  C 20.7863333333333 8.17766666666667  20.394 8.768  19.866 9.296  L 11.44 17.656  C 10.912 18.184  10.263 18.624  9.493 18.976  C 8.723 19.328  7.909 19.5333333333333  7.051 19.592  C 6.193 19.6506666666667  5.31666666666667 19.5333333333333  4.422 19.24  C 3.52733333333333 18.9466666666667  2.69866666666667 18.4186666666667  1.936 17.656  C 1.188 16.908  0.667333333333334 16.0976666666667  0.374 15.225  C 0.080666666666667 14.3523333333333  -0.0366666666666663 13.4833333333333  0.0220000000000003 12.618  C 0.080666666666667 11.7526666666667  0.282333333333334 10.9386666666667  0.627 10.176  C 0.971666666666667 9.41333333333334  1.408 8.768  1.936 8.24000000000001  L 9.416 0.826000000000005  C 9.548 0.694000000000006  9.74233333333333 0.661000000000005  9.999 0.727000000000005  C 10.2556666666667 0.793000000000005  10.45 0.892000000000005  10.582 1.02400000000001  C 10.6993333333333 1.15600000000001  10.7946666666667 1.35033333333334  10.868 1.60700000000001  C 10.9413333333333 1.86366666666667  10.912 2.05800000000001  10.78 2.19000000000001  L 3.322 9.58200000000001  C 2.926 9.97800000000001  2.596 10.44  2.332 10.968  C 2.068 11.496  1.914 12.0606666666667  1.87 12.662  C 1.826 13.2633333333333  1.914 13.872  2.134 14.488  C 2.354 15.104  2.75 15.698  3.322 16.27  C 3.83533333333334 16.7833333333333  4.40366666666667 17.1463333333333  5.027 17.359  C 5.65033333333334 17.5716666666667  6.27 17.6596666666667  6.886 17.623  C 7.502 17.5863333333333  8.08866666666667 17.4506666666667  8.646 17.216  C 9.20333333333334 16.9813333333333  9.68 16.666  10.076 16.27  L 18.48 7.932  C 18.876 7.536  19.1583333333333 7.12533333333334  19.327 6.7  C 19.4956666666667 6.27466666666667  19.5763333333333 5.853  19.569 5.435  C 19.5616666666667 5.017  19.4626666666667 4.61  19.272 4.214  C 19.0813333333333 3.818  18.8173333333333 3.45133333333334  18.48 3.114  C 17.8493333333333 2.498  17.1416666666667 2.20833333333334  16.357 2.245  C 15.5723333333333 2.28166666666667  14.784 2.696  13.992 3.488  L 6.402 11.034  C 6.06466666666667 11.3713333333333  5.89966666666667 11.7453333333333  5.907 12.156  C 5.91433333333333 12.5666666666667  6.05 12.904  6.314 13.168  C 6.63666666666667 13.4906666666667  7.007 13.6226666666667  7.425 13.564  C 7.843 13.5053333333333  8.184 13.344  8.448 13.08  L 15.334 6.238  C 15.466 6.10600000000001  15.6603333333333 6.073  15.917 6.139  C 16.1736666666667 6.20500000000001  16.368 6.30400000000001  16.5 6.43600000000001  C 16.632 6.56800000000001  16.7346666666667 6.76233333333334  16.808 7.01900000000001  C 16.8813333333333 7.27566666666667  16.852 7.47000000000001  16.72 7.60200000000001  L 9.812 14.444  C 9.284 14.972  8.778 15.3386666666667  8.294 15.544  C 7.81 15.7493333333333  7.35533333333333 15.841  6.93 15.819  C 6.50466666666667 15.797  6.10866666666667 15.6833333333333  5.742 15.478  C 5.37533333333333 15.2726666666667  5.038 15.0233333333333  4.73 14.73  C 4.48066666666667 14.4953333333333  4.257 14.1946666666667  4.059 13.828  C 3.861 13.4613333333333  3.74733333333333 13.058  3.718 12.618  C 3.68866666666667 12.178  3.76566666666667 11.7086666666667  3.949 11.21  C 4.13233333333334 10.7113333333333  4.488 10.2053333333333  5.016 9.692  C 5.28 9.428  5.51466666666667 9.186  5.72 8.966  C 5.896 8.77533333333334  6.061 8.60666666666667  6.215 8.46  C 6.369 8.31333333333334  6.45333333333333 8.23266666666667  6.468 8.218  L 12.606 2.102  C 13.134 1.574  13.7096666666667 1.15966666666667  14.333 0.859000000000003  C 14.9563333333333 0.558333333333336  15.5906666666667 0.386000000000003  16.236 0.342000000000003  C 16.8813333333333 0.298000000000003  17.5156666666667 0.386000000000003  18.139 0.606000000000003  Z " fill-rule="nonzero" fill="#abacb6" stroke="none" transform="matrix(1 0 0 1 2307 1311 )" />
  </g>
</svg>