<?xml version="1.0" encoding="utf-8"?>
<svg version="1.1" xmlns:xlink="http://www.w3.org/1999/xlink" width="22px" height="25px" xmlns="http://www.w3.org/2000/svg">
  <g transform="matrix(1 0 0 1 -2177 -1262 )">
    <path d="M 1 0.437499990234376  L 15.1843750097656 0.437499990234375  L 21 6.56562500976563  L 21 24  L 1 24  L 1 0.437499990234376  Z M 13.1875000097656 2.311875  L 3 2.311875  L 3 22  L 19 22  L 19 8.56250000976562  L 13.1875000097656 8.56250000976562  L 13.1875000097656 2.31249999023438  Z M 5.375 16.6875  L 16.625 16.6875  L 16.625 18.5625  L 5.375 18.5625  L 5.375 16.6875  Z M 5.375 12  L 16.625 12  L 16.625 13.5624999902344  L 5.375 13.5624999902344  L 5.375 12  Z M 5.375 6.68750000976563  L 10.67 6.68750000976563  L 10.67 8.56250000976563  L 5.375 8.56250000976563  L 5.375 6.68750000976563  Z M 15.0625000097656 6.68750000976562  L 18.783125 6.68750000976563  L 15.0625000097656 2.96687499023438  L 15.0625000097656 6.68750000976562  Z " fill-rule="nonzero" fill="#00bfbf" stroke="none" transform="matrix(1 0 0 1 2177 1262 )" />
  </g>
</svg>