<?xml version="1.0" encoding="utf-8"?>
<svg version="1.1" xmlns:xlink="http://www.w3.org/1999/xlink" width="6px" height="6px" xmlns="http://www.w3.org/2000/svg">
  <g transform="matrix(1 0 0 1 -2185 -1288 )">
    <path d="M 5.4375 1.875  L 0.5625 1.875  C 0.458946609406726 1.875  0.375 1.79105339059327  0.375 1.6875  C 0.375 1.58394660940673  0.458946609406726 1.5  0.5625 1.5  L 5.4375 1.5  C 5.54105339059327 1.5  5.625 1.58394660940673  5.625 1.6875  C 5.625 1.79105339059327  5.54105339059327 1.875  5.4375 1.875  Z M 4.875 4.5  L 4.875 1.875  L 5.25 1.875  L 5.25 4.5  C 5.25 5.01776695296637  4.83026695296637 5.4375  4.3125 5.4375  L 1.6875 5.4375  C 1.16973304703363 5.4375  0.75 5.01776695296637  0.75 4.5  L 0.75 1.875  L 1.125 1.875  L 1.125 2.4375  L 0.75 2.4375  L 0.75 1.875  L 1.125 1.875  L 1.125 4.5  C 1.125 4.81066017177982  1.37683982822018 5.0625  1.6875 5.0625  L 4.3125 5.0625  C 4.62316017177982 5.0625  4.875 4.81066017177982  4.875 4.5  Z M 1.875 4.40625  L 1.875 2.53125  C 1.875 2.42769660940673  1.95894660940673 2.34375  2.0625 2.34375  C 2.16605339059327 2.34375  2.25 2.42769660940673  2.25 2.53125  L 2.25 4.40625  C 2.25 4.50980339059327  2.16605339059327 4.59375  2.0625 4.59375  C 1.95894660940673 4.59375  1.875 4.50980339059327  1.875 4.40625  Z M 3.75 4.40625  L 3.75 2.53125  C 3.75 2.42769660940673  3.83394660940673 2.34375  3.9375 2.34375  C 4.04105339059327 2.34375  4.125 2.42769660940673  4.125 2.53125  L 4.125 4.40625  C 4.125 4.50980339059327  4.04105339059327 4.59375  3.9375 4.59375  C 3.83394660940673 4.59375  3.75 4.50980339059327  3.75 4.40625  Z M 1.6875 1.125  L 1.6875 1.5  L 1.3125 1.5  L 1.3125 1.125  C 1.3125 0.814339828220179  1.56433982822018 0.5625  1.875 0.5625  L 4.125 0.5625  C 4.43566017177982 0.5625  4.6875 0.814339828220179  4.6875 1.125  L 4.6875 1.5  L 4.3125 1.5  L 4.3125 1.3125  L 4.6875 1.3125  L 4.6875 1.5  L 4.3125 1.5  L 4.3125 1.125  C 4.3125 1.02144660940673  4.22855339059327 0.9375  4.125 0.9375  L 1.875 0.9375  C 1.77144660940673 0.9375  1.6875 1.02144660940673  1.6875 1.125  Z " fill-rule="nonzero" fill="#d9001b" stroke="none" transform="matrix(1 0 0 1 2185 1288 )" />
  </g>
</svg>