<?xml version="1.0" encoding="utf-8"?>
<svg version="1.1" xmlns:xlink="http://www.w3.org/1999/xlink" width="17px" height="11px" xmlns="http://www.w3.org/2000/svg">
  <g transform="matrix(1 0 0 1 -2093 -586 )">
    <path d="M 9.13549739577415 9.99934686830357  C 8.97363731844815 10.1672988659319  8.75209209446023 10.2619415477121  8.5208340448331 10.2619415477121  C 8.28960535884233 10.2619415477121  8.06803077121804 10.1672988659319  7.90617069389205 9.99934686830357  L 0.447226408824574 2.26081516196987  C 0.114497725674715 1.91566175041853  0.120014361505682 1.36159027106585  0.459492092950995 1.02329933719308  C 0.79894048943537 0.685038260463166  1.34388312615412 0.690587927734374  1.67655311070668 1.0357711672712  L 8.5208340448331 8.13659853390067  L 15.3651150076349 1.0357711672712  C 15.6977849921875 0.69055807059152  16.2426689303089 0.684918890206473  16.5821760253906 1.02329933719308  C 16.9216831204723 1.36162009905134  16.9271703926669 1.91566175041853  16.594441709517 2.26081516196987  L 9.13549739577415 9.99934686830357  Z " fill-rule="nonzero" fill="#9da7b2" stroke="none" transform="matrix(1 0 0 1 2093 586 )" />
  </g>
</svg>