<?xml version="1.0" encoding="utf-8"?>
<svg version="1.1" xmlns:xlink="http://www.w3.org/1999/xlink" width="14px" height="14px" xmlns="http://www.w3.org/2000/svg">
  <g transform="matrix(1 0 0 1 -1663 -1458 )">
    <path d="M 2.63025 1.75  C 2.14375 1.75  1.75 2.14375  1.75 2.63025  L 1.75 11.36975  C 1.75 11.85625  2.14375 12.25  2.63025 12.25  L 11.36975 12.25  C 11.85625 12.25  12.25 11.85625  12.25 11.36975  L 12.25 2.63025  C 12.25 2.14375  11.85625 1.75  11.36975 1.75  L 2.63025 1.75  Z M 0.875 11.36975  L 0.875 2.63025  C 0.875 1.66075  1.659875 0.875  2.63025 0.875  L 11.36975 0.875  C 12.33925 0.875  13.125 1.659875  13.125 2.63025  L 13.125 11.36975  C 13.1250002183134 12.3395397762978  12.3395397762978 13.1250002183134  11.3706252183134 13.1250002183134  L 2.63025 13.125  C 1.6604602237022 13.1250002183134  0.874999781686599 12.3395397762978  0.874999781686599 11.3706252183134  Z " fill-rule="nonzero" fill="#aaaaaa" stroke="none" transform="matrix(1 0 0 1 1663 1458 )" />
  </g>
</svg>