<?xml version="1.0" encoding="utf-8"?>
<svg version="1.1" xmlns:xlink="http://www.w3.org/1999/xlink" width="31px" height="31px" xmlns="http://www.w3.org/2000/svg">
  <g transform="matrix(1 0 0 1 -109 -71 )">
    <path d="M 31 15.5  C 31 6.9395825  24.0604175 0  15.5 0  C 6.9395825 0  0 6.9395825  0 15.5  C 0 24.0604175  6.9395825 31  15.5 31  C 24.0604175 31  31 24.0604175  31 15.5  Z M 30.225 15.5  C 30.225 23.632385  23.632385 30.225  15.5 30.225  C 7.367615 30.225  0.775 23.632385  0.775 15.5  C 0.775 7.3675375  7.367615 0.775000000000003  15.5 0.775000000000003  C 23.632385 0.775000000000003  30.225 7.3675375  30.225 15.5  Z " fill-rule="nonzero" fill="#ffffff" stroke="none" transform="matrix(1 0 0 1 109 71 )" />
  </g>
</svg>