<?xml version="1.0" encoding="utf-8"?>
<svg version="1.1" xmlns:xlink="http://www.w3.org/1999/xlink" width="15px" height="15px" xmlns="http://www.w3.org/2000/svg">
  <g transform="matrix(1 0 0 1 -117 -79 )">
    <path d="M 1.9354225 2.69469  C 2.1214225 2.467305  2.3075 2.2554975  2.4935 2.05919  C 2.6380375 1.8834975  2.79048 1.71819  2.950595 1.56319  C 3.11071 1.40819  3.2323075 1.294575  3.3149225 1.2222675  C 3.42880356745857 1.12907836685746  3.55066443660464 1.04609160770287  3.679095 0.9742675  C 3.80821 0.901882500000001  3.981345 0.865767499999999  4.1984225 0.865767499999999  L 10.8942675 0.865767499999999  C 11.0286525 0.865767499999999  11.1836525 0.8941325  11.3592675 0.951094999999999  C 11.5350375 1.007825  11.70546 1.124075  11.8709225 1.299845  C 11.9535375 1.4031525  12.06196 1.532345  12.196345 1.687345  C 12.330575 1.842345  12.459845 1.99223  12.583845 2.136845  C 12.7334583433008 2.31894424651374  12.8781767071146 2.50501071427428  13.017845 2.694845  L 1.9354225 2.694845  Z M 14.5215 5.1126125  L 14.5215 7.32919  C 14.5215 7.6598825  14.413 7.938805  14.1960775 8.16619  C 13.979 8.393575  13.669 8.50719  13.2660775 8.50719  L 1.8115 8.50719  C 1.418885 8.50719  1.10625 8.3934975  0.873749999999999 8.16619  C 0.641249999999999 7.9388825  0.525 7.6598825  0.525 7.32919  L 0.525 5.1126125  C 0.525 4.7819975  0.62823 4.4977275  0.835000000000001 4.2601125  C 1.041615 4.0224975  1.3775 3.9036125  1.8425 4  L 13.2504225 4  C 13.72573 3.9036125  14.0564225 4.02242  14.2425 4.2601125  C 14.4285775 4.497805  14.5215 4.7819975  14.5215 5.1126125  Z M 8.306 6.6006125  C 8.5436925 6.60069  8.667615 6.4714975  8.6779225 6.21319  C 8.6779225 6.0788825  8.6442875 5.983325  8.57725 5.92644  C 8.5100575 5.86971  8.4195375 5.84119  8.306 5.84119  L 6.7404225 5.84119  C 6.62673 5.84119  6.5338075 5.8773825  6.4614225 5.94969  C 6.3890375 6.0219975  6.3529225 6.109805  6.3529225 6.2131125  C 6.36323 6.34742  6.40198 6.4456125  6.4691725 6.5076125  C 6.536365 6.56969  6.62672999999999 6.6006125  6.7404225 6.6006125  L 8.306 6.6006125  Z M 14.475 10.723535  L 14.475 12.9401125  C 14.475 13.2708825  14.3482875 13.5549975  14.09525 13.7926125  C 13.84198 14.0302275  13.519115 14.14392  13.1265 14  L 1.765 14  C 1.43423 14.1336125  1.13725 14.0173625  0.873749999999999 13.7848625  C 0.610250000000001 13.5523625  0.4785 13.2294975  0.4785 12.8161125  L 0.4785 10.7391125  C 0.4785 10.3981125  0.5842875 10.111285  0.796250000000001 9.878785  C 1.00798 9.64628500000001  1.3465 9.53003500000001  1.8115 9.53003500000001  L 13.1885 9.53003500000001  C 13.6225 9.53003500000001  13.945365 9.64628500000001  14.15725 9.878785  C 14.36898 10.111285  14.475 10.39292  14.475 10.723535  Z M 8.5306725 12.1031125  C 8.597865 12.0308825  8.6315 11.9429975  8.6315 11.83969  C 8.6315 11.736305  8.597865 11.6484975  8.5306725 11.57619  C 8.463635 11.503805  8.373115 11.46769  8.2594225 11.46769  L 6.694 11.46769  C 6.5803075 11.46769  6.487385 11.5038825  6.415 11.57619  C 6.342615 11.6484975  6.3065 11.736305  6.3065 11.83969  C 6.3065 11.9429975  6.3426925 12.0308825  6.415 12.1031125  C 6.487385 12.1754975  6.5803075 12.2116125  6.694 12.2116125  L 8.2594225 12.2116125  C 8.373115 12.2116125  8.463635 12.17542  8.5306725 12.1031125  Z " fill-rule="nonzero" fill="#ffffff" stroke="none" transform="matrix(1 0 0 1 117 79 )" />
  </g>
</svg>