<?xml version="1.0" encoding="utf-8"?>
<svg version="1.1" xmlns:xlink="http://www.w3.org/1999/xlink" width="18px" height="19px" xmlns="http://www.w3.org/2000/svg">
  <g transform="matrix(1 0 0 1 -2009 -1503 )">
    <path d="M 0.75 17.7  C 0.750276290870203 14.1223212161988  3.05556583146355 10.9522149635563  6.459 9.8493  C 4.96357312433631 8.9558064681935  4.0478882091126 7.34202003469979  4.0478882091126 5.6000004504708  C 4.0478882091126 2.86619093880838  6.26407869745017 0.650000450470804  8.9978882091126 0.650000450470804  C 11.731697720775 0.650000450470804  13.9478882091126 2.86619093880838  13.9478882091126 5.6000004504708  C 13.9478882091126 8.33298529289703  11.7329845937131 10.5488340419221  9 10.55  C 5.05116403870983 10.55  1.85 13.7511640387098  1.85 17.7  C 1.85 18.0037566124069  1.60375661240694 18.25  1.3 18.25  C 0.996243387593064 18.25  0.75 18.0037566124069  0.75 17.7  Z M 9 9.45  C 11.1262962868486 9.45  12.85 7.72629628684855  12.85 5.6  C 12.85 3.47370371315144  11.1262962868486 1.75  9 1.75  C 6.87370371315144 1.75  5.15 3.47370371315144  5.15 5.6  C 5.15 7.72629628684855  6.87370371315144 9.45  9 9.45  Z M 14.5528 11.5972  C 16.2733499961537 13.1592946608976  17.2531000934913 15.3761191062601  17.25 17.7  C 17.25 18.0037566124069  17.0037566124069 18.25  16.7 18.25  C 16.3962433875931 18.25  16.15 18.0037566124069  16.15 17.7  C 16.1529903485102 15.6860059572767  15.3038451501361 13.764740021379  13.8125 12.4112  C 13.6978583880987 12.3069381016087  13.632504544234 12.1591620683763  13.632504544234 12.0042  C 13.632504544234 11.7003630545917  13.8788130545917 11.454054544234  14.18265 11.454054544234  C 14.3195457944457 11.454054544234  14.451523896098 11.5050934892891  14.5528 11.5972  Z " fill-rule="nonzero" fill="#9da7b2" stroke="none" transform="matrix(1 0 0 1 2009 1503 )" />
  </g>
</svg>