<?xml version="1.0" encoding="utf-8"?>
<svg version="1.1" xmlns:xlink="http://www.w3.org/1999/xlink" width="20px" height="13px" xmlns="http://www.w3.org/2000/svg">
  <g transform="matrix(1 0 0 1 -2613 -1506 )">
    <path d="M 10.7476439950284 11.8174099352679  C 10.5572203746449 12.0158986597377  10.2965789346591 12.1277491018415  10.0245106409801 12.1277491018415  C 9.75247689275568 12.1277491018415  9.49180090731534 12.0158986597377  9.30137728693182 11.8174099352679  L 0.526148716264205 2.67187246414621  C 0.134703206676135 2.26396388685826  0.141193366477273 1.60915213853236  0.540578932883523 1.20935376213728  C 0.939929987571023 0.809590671456469  1.58103897194602 0.816149369140624  1.9724154243608 1.22409319768415  L 10.0245106409801 9.61598008551897  L 18.0766058913352 1.22409319768415  C 18.46798234375 0.816114083426342  19.1090222709517 0.809449597516741  19.5084423828125 1.20935376213728  C 19.9078624946733 1.60918738978795  19.9143181090199 2.26396388685826  19.5228725994318 2.67187246414621  L 10.7476439950284 11.8174099352679  Z " fill-rule="nonzero" fill="#9da7b2" stroke="none" transform="matrix(1 0 0 1 2613 1506 )" />
  </g>
</svg>