<?xml version="1.0" encoding="utf-8"?>
<svg version="1.1" xmlns:xlink="http://www.w3.org/1999/xlink" width="23px" height="23px" xmlns="http://www.w3.org/2000/svg">
  <g transform="matrix(1 0 0 1 -1615 -1601 )">
    <path d="M 1626.5 1601  C 1632.94 1601  1638 1606.06  1638 1612.5  C 1638 1618.94  1632.94 1624  1626.5 1624  C 1620.06 1624  1615 1618.94  1615 1612.5  C 1615 1606.06  1620.06 1601  1626.5 1601  Z " fill-rule="nonzero" fill="#ffffff" stroke="none" />
    <path d="M 1626.5 1601.5  C 1632.66 1601.5  1637.5 1606.34  1637.5 1612.5  C 1637.5 1618.66  1632.66 1623.5  1626.5 1623.5  C 1620.34 1623.5  1615.5 1618.66  1615.5 1612.5  C 1615.5 1606.34  1620.34 1601.5  1626.5 1601.5  Z " stroke-width="1" stroke="#797979" fill="none" />
  </g>
</svg>